<svg xmlns="http://www.w3.org/2000/svg" width="63.078" height="63.062" viewBox="0 0 63.078 63.062">
  <path id="france" d="M97.26,58.58a6.48,6.48,0,0,0-2.6-11.38l-6.2-1.44a4.49,4.49,0,0,1-3-2.39,4,4,0,0,0-3.59-2.22,2,2,0,0,1-1.33-.5L74.38,35.3a4.64,4.64,0,0,0-7.69,3.49V40a2.12,2.12,0,0,1-2.12,2.12A3.89,3.89,0,0,0,60.69,46a1.12,1.12,0,0,1-1.12,1.12,1.07,1.07,0,0,1-.79-.33l-2-2a2.42,2.42,0,0,0-4.12,1.71,4.58,4.58,0,0,1-4.58,4.58H43a5.33,5.33,0,0,0-.87,10.59l1.53.26a14,14,0,0,1,9.73,6.62,16,16,0,0,1,1.13,14.21L52.06,89A5.2,5.2,0,0,0,55,95.78a5.1,5.1,0,0,0,1.93.37h3.55a4.63,4.63,0,0,0,4.17-2.57,2.56,2.56,0,0,1,2.3-1.43,2.62,2.62,0,0,1,2.06,1l1.13,1.5a3.66,3.66,0,0,0,5.53.39,18,18,0,0,0,16-31.94l.08-.07ZM65.69,78.15a16,16,0,0,1,9-14.36V92.52A16,16,0,0,1,65.69,78.15Zm7.33,16a1.7,1.7,0,0,1-1.33-.66l-.63-.85a18.25,18.25,0,0,0,2.33,1.47,1.5,1.5,0,0,1-.39.04Zm3.67-.81V63a15.84,15.84,0,0,1,9.91,0l.08,30.41a15.81,15.81,0,0,1-10,0Zm21-15.19a16,16,0,0,1-9,14.37L88.6,63.74A16,16,0,0,1,97.69,78.15Zm-16-18A18,18,0,0,0,68.63,90.5a4.55,4.55,0,0,0-5.82,2.18,2.62,2.62,0,0,1-2.38,1.47H56.88A3.19,3.19,0,0,1,53.69,91a3.27,3.27,0,0,1,.23-1.19l2.48-6.2a17.87,17.87,0,0,0,1.29-6.7,18.07,18.07,0,0,0-2.57-9.28A16,16,0,0,0,44,60l-1.53-.25a3.33,3.33,0,0,1,.53-6.6h5.09a6.59,6.59,0,0,0,6.58-6.58.43.43,0,0,1,.46-.4.55.55,0,0,1,.25.1l2,2A3.12,3.12,0,0,0,62.69,46a1.88,1.88,0,0,1,1.88-1.88A4.11,4.11,0,0,0,68.69,40V38.79a2.64,2.64,0,0,1,4.37-2l6.12,5.36a4,4,0,0,0,2.65,1,2,2,0,0,1,1.8,1.12A6.52,6.52,0,0,0,88,47.71l6.2,1.44A4.48,4.48,0,0,1,96,57l-5.6,4.48a6.071,6.071,0,0,0-.65.59A17.94,17.94,0,0,0,81.69,60.15Z" transform="translate(-37.159 -33.589)" stroke="#000" stroke-miterlimit="10" stroke-width="1"/>
</svg>
