<svg xmlns="http://www.w3.org/2000/svg" data-name="Layer 3" viewBox="0 0 64 64"><path d="M60.566,25.428a6.486,6.486,0,0,0-2.593-11.384l-6.209-1.433a4.514,4.514,0,0,1-3.035-2.389A4,4,0,0,0,45.134,8a2.015,2.015,0,0,1-1.329-.5L37.687,2.147A4.635,4.635,0,0,0,30,5.634V6.879A2.124,2.124,0,0,1,27.879,9,3.883,3.883,0,0,0,24,12.879a1.121,1.121,0,0,1-1.914.793l-1.965-1.965A2.414,2.414,0,0,0,16,13.414,4.591,4.591,0,0,1,11.414,18H6.331a5.331,5.331,0,0,0-.876,10.589l1.532.256a14.017,14.017,0,0,1,9.728,6.623A16.042,16.042,0,0,1,19,43.719a15.967,15.967,0,0,1-1.147,5.956l-2.481,6.2A5.191,5.191,0,0,0,20.192,63h3.547a4.634,4.634,0,0,0,4.167-2.575A2.563,2.563,0,0,1,30.211,59a2.591,2.591,0,0,1,2.062,1.031l1.127,1.5A3.681,3.681,0,0,0,36.333,63a3.639,3.639,0,0,0,2.591-1.078A17.981,17.981,0,0,0,54.89,29.977c.027-.023.05-.049.077-.07ZM29,45a16,16,0,0,1,9-14.365v28.73A16,16,0,0,1,29,45Zm7.333,16A1.674,1.674,0,0,1,35,60.333l-.631-.841A17.976,17.976,0,0,0,36.7,60.954,1.678,1.678,0,0,1,36.333,61ZM40,60.189V29.811a15.85,15.85,0,0,1,9.91-.033l.08,30.414a15.816,15.816,0,0,1-9.99,0ZM61,45a16,16,0,0,1-9.012,14.371l-.076-28.779A16.006,16.006,0,0,1,61,45ZM45,27A17.974,17.974,0,0,0,31.938,57.348a4.548,4.548,0,0,0-5.821,2.182A2.644,2.644,0,0,1,23.739,61H20.192a3.191,3.191,0,0,1-2.963-4.378l2.48-6.2A17.94,17.94,0,0,0,21,43.719a18.048,18.048,0,0,0-2.57-9.28A16.013,16.013,0,0,0,7.316,26.872l-1.532-.255A3.331,3.331,0,0,1,6.331,20h5.083A6.594,6.594,0,0,0,18,13.414a.43.43,0,0,1,.707-.293l1.965,1.965A3.121,3.121,0,0,0,26,12.879,1.881,1.881,0,0,1,27.879,11,4.126,4.126,0,0,0,32,6.879V5.634a2.634,2.634,0,0,1,4.369-1.982l6.119,5.353A4.015,4.015,0,0,0,45.134,10a2.008,2.008,0,0,1,1.806,1.116,6.518,6.518,0,0,0,4.375,3.445l6.208,1.432a4.486,4.486,0,0,1,1.794,7.873l-5.6,4.479a7.072,7.072,0,0,0-.648.588A17.867,17.867,0,0,0,45,27Z"/></svg>
