<svg xmlns="http://www.w3.org/2000/svg" viewBox="0 0 98.76 128.09"><g data-name="Capa 2"><g data-name="Layer 1"><path d="M53.85,6.72h-9.2V2.88h9.2Zm-8.2-1h7.2V3.88h-7.2Z"/><path d="M53.82 3.84H44.67l3-3.84h3.14zm-7.09-1h5L50.33 1H48.17zM62.1 74h-26V70.18h26zm-25-1h24V71.18h-24zM73.48 107.65H24.7v-5.4H73.48zm-47.78-1H72.48v-3.4H25.7z"/><path d="M69.9 128.09l-9.06-21.21 11.09-.11L81 128zm-7.55-20.22l8.21 19.21 8.92-.09-8.21-19.21zM59.45 103.26l-.1-.37L51.63 73.13l8.21-.07.12.34 9.74 29.81zM52.92 74.12l7.3 28.14 8.1 0-9.2-28.16zM59.32 71.18H51.45l0-.48L48.63 5.83l3.81 0zm-6.92-1h5.81L51.54 6.79l-1.87 0zM28.86 128.09L17.77 128l9.06-21.21 11.09.11zM19.28 127l8.92.09 8.21-19.21-8.92-.09zM39.31 103.26l-10.24-.05 9.85-30.15 8.21.07zm-8.87-1l8.1 0 7.31-28.14-6.21-.06z"/><path d="M47.32,71.18H39.44l6.89-65.4,3.8,0,0,.51Zm-6.77-1h5.81L49.09,6.82l-1.87,0Z"/><polygon points="58.38 70.43 51.01 62.31 56.15 53.32 50.32 48.19 55.06 41.77 49.86 36.08 53.85 30.64 49.62 27.1 52.98 22.76 49.15 19.13 52.28 15.11 48.91 12.04 51.56 9.29 49.29 7.18 49.97 6.44 52.99 9.24 50.34 11.99 53.64 14.99 50.5 19.02 54.32 22.65 51 26.95 55.21 30.47 51.15 36.01 56.35 41.7 51.67 48.04 57.42 53.11 52.23 62.18 59.12 69.76 58.38 70.43"/><polygon points="60.48 102.69 59.58 102.25 64.65 91.91 55.39 87.48 60.6 78.82 52.23 74.26 52.71 73.38 62 78.44 56.81 87.05 65.99 91.44 60.48 102.69"/><polygon points="70.65 127.86 69.81 127.31 75.33 118.76 64.69 115.7 71.2 106.98 72 107.58 66.36 115.14 76.9 118.17 70.65 127.86"/><polygon points="40.41 70.43 39.67 69.76 46.56 62.18 41.37 53.11 47.12 48.04 42.44 41.7 47.64 36.01 43.58 30.47 47.79 26.95 44.47 22.65 48.3 19.02 45.15 14.99 48.45 11.99 45.8 9.24 48.83 6.44 49.51 7.18 47.23 9.29 49.88 12.04 46.51 15.11 49.65 19.13 45.82 22.76 49.17 27.1 44.94 30.64 48.93 36.08 43.73 41.77 48.47 48.19 42.64 53.32 47.79 62.31 40.41 70.43"/><polygon points="38.32 102.69 32.8 91.44 41.98 87.05 36.8 78.44 46.08 73.38 46.56 74.26 38.19 78.82 43.4 87.48 34.14 91.91 39.22 102.25 38.32 102.69"/><polygon points="28.14 127.86 21.89 118.17 32.44 115.14 26.79 107.58 27.59 106.98 34.1 115.7 23.46 118.76 28.98 127.31 28.14 127.86"/><path d="M33,118.32l-.62-.78c10-7.85,25.15-7.9,33.82-.13l-.66.75C57.34,110.82,42.45,110.89,33,118.32Z"/><path d="M33.24,116.2l-.59-.81c9.81-7.23,24.75-7.28,33.29-.11l-.64.76C57.22,109.27,42.55,109.34,33.24,116.2Z"/><rect width="98.76" height="1" y="126.93"/></g></g></svg>