<svg xmlns="http://www.w3.org/2000/svg" width="540" height="358" viewBox="0 0 540 358">
  <g id="DESIGNED_BY_FREEPIK" transform="translate(0 -44.547)">
    <g id="Groupe_42" data-name="Groupe 42" transform="translate(0 44.547)">
      <path id="Tracé_10" data-name="Tracé 10" d="M305.563,59.32a155.752,155.752,0,0,1,18.413,9.475c19.626,11.886,35.413,29.19,54.7,41.111,18.211,11.256,40.45,13.993,61.289,15.874,36.324,3.28,112.083,34.736,98.4,93.036-4.977,21.217-22.527,35.626-31.512,54.839-9.558,20.438-8.555,45.929-23.773,63.647-6.695,7.791-15.936,12.936-25.424,16.833-63.142,25.93-134.051,24.725-201,21.867-52.845-2.256-137.723,9.668-184.14-19.448-23.045-14.456-11.061-53.972-27.008-75.2-13.4-17.835-31.636-29.549-40.595-51.874C-10.332,191.5,11.4,142.06,49.447,128.575c23.776-8.426,48.965-12.287,72.468-21.541,24.282-9.565,33.638-23.891,52.155-40.847C207.547,35.539,264.523,41.421,305.563,59.32Z" transform="translate(0 -44.547)" fill="#cce9ff"/>
      <g id="Groupe_41" data-name="Groupe 41" transform="translate(103.408 32.362)">
        <g id="Groupe_38" data-name="Groupe 38" transform="translate(54.24 77.308)">
          <path id="Tracé_11" data-name="Tracé 11" d="M337.076,336.726H167.365V230.59a3.6,3.6,0,0,1,3.564-3.631H333.512a3.6,3.6,0,0,1,3.564,3.631Z" transform="translate(-139.956 -128.124)" fill="#d3d3d3"/>
          <rect id="Rectangle_11" data-name="Rectangle 11" width="157.29" height="93.595" transform="translate(33.621 106.525)" fill="#f2f2f2"/>
          <path id="Tracé_12" data-name="Tracé 12" d="M140.374,368.32c-1.56,2.04,1.421,8.133,6.1,8.133H361.6c4.672,0,7.615-6.093,5.826-8.133Z" transform="translate(-139.956 -128.124)" fill="#d3d3d3"/>
          <path id="Tracé_13" data-name="Tracé 13" d="M366.825,367.2c1.789,2.037-.554,3.69-5.225,3.69H146.471c-4.675,0-7.2-1.653-5.639-3.69q11.013-14.4,22.025-28.8c1.56-2.039,5.642-3.691,9.12-3.691H332.028c3.474,0,7.746,1.652,9.535,3.691Q354.19,352.811,366.825,367.2Z" transform="translate(-139.956 -128.124)" fill="#f2f2f2"/>
          <g id="Groupe_2" data-name="Groupe 2" transform="translate(31.12 210.348)" opacity="0.5">
            <path id="Tracé_14" data-name="Tracé 14" d="M188.61,344.43h-7.266c1.028-1.522,1.543-2.285,2.569-3.808h6.979C189.98,342.145,189.523,342.906,188.61,344.43Z" transform="translate(-171.076 -338.472)" fill="#d3d3d3"/>
            <path id="Tracé_15" data-name="Tracé 15" d="M198.027,344.43h-7.266c.88-1.522,1.32-2.285,2.2-3.808h6.977C199.173,342.145,198.791,342.908,198.027,344.43Z" transform="translate(-171.076 -338.472)" fill="#d3d3d3"/>
            <path id="Tracé_16" data-name="Tracé 16" d="M195.018,339.893H184.411c.382-.568.574-.852.958-1.421h10.446C195.495,339.041,195.336,339.325,195.018,339.893Z" transform="translate(-171.076 -338.472)" fill="#d3d3d3"/>
            <path id="Tracé_17" data-name="Tracé 17" d="M207.45,339.894H196.84c.306-.568.459-.852.767-1.421h10.446C207.813,339.041,207.69,339.325,207.45,339.894Z" transform="translate(-171.076 -338.472)" fill="#d3d3d3"/>
            <path id="Tracé_18" data-name="Tracé 18" d="M219.883,339.893H209.272c.229-.568.345-.852.574-1.421H220.3C220.131,339.041,220.048,339.325,219.883,339.893Z" transform="translate(-171.076 -338.472)" fill="#d3d3d3"/>
            <path id="Tracé_19" data-name="Tracé 19" d="M232.314,339.893H221.706c.153-.568.228-.852.381-1.421h10.448C232.449,339.041,232.4,339.325,232.314,339.893Z" transform="translate(-171.076 -338.472)" fill="#d3d3d3"/>
            <path id="Tracé_20" data-name="Tracé 20" d="M244.748,339.893H234.137c.078-.568.115-.852.193-1.421h10.445C244.764,339.041,244.759,339.325,244.748,339.893Z" transform="translate(-171.076 -338.472)" fill="#d3d3d3"/>
            <path id="Tracé_21" data-name="Tracé 21" d="M257.18,339.893H246.572v-1.421h10.445C257.083,339.041,257.112,339.325,257.18,339.893Z" transform="translate(-171.076 -338.472)" fill="#d3d3d3"/>
            <path id="Tracé_22" data-name="Tracé 22" d="M269.614,339.893H259c-.077-.568-.116-.852-.194-1.421h10.449C269.4,339.041,269.471,339.325,269.614,339.893Z" transform="translate(-171.076 -338.472)" fill="#d3d3d3"/>
            <path id="Tracé_23" data-name="Tracé 23" d="M282.048,339.893H271.437c-.153-.568-.231-.852-.384-1.421H281.5C281.72,339.041,281.829,339.325,282.048,339.893Z" transform="translate(-171.076 -338.472)" fill="#d3d3d3"/>
            <path id="Tracé_24" data-name="Tracé 24" d="M294.481,339.893h-10.61c-.233-.568-.348-.852-.58-1.421h10.451C294.038,339.041,294.185,339.325,294.481,339.893Z" transform="translate(-171.076 -338.472)" fill="#d3d3d3"/>
            <path id="Tracé_25" data-name="Tracé 25" d="M306.911,339.893H296.3c-.307-.568-.462-.852-.767-1.421h10.443C306.351,339.041,306.537,339.325,306.911,339.893Z" transform="translate(-171.076 -338.472)" fill="#d3d3d3"/>
            <path id="Tracé_26" data-name="Tracé 26" d="M320.784,339.893H308.736c-.384-.568-.577-.852-.961-1.421h11.864C320.1,339.041,320.327,339.325,320.784,339.893Z" transform="translate(-171.076 -338.472)" fill="#d3d3d3"/>
            <path id="Tracé_27" data-name="Tracé 27" d="M207.44,344.43h-7.264c.73-1.522,1.1-2.284,1.825-3.806l6.977,0C208.364,342.147,208.056,342.906,207.44,344.43Z" transform="translate(-171.076 -338.472)" fill="#d3d3d3"/>
            <path id="Tracé_28" data-name="Tracé 28" d="M216.855,344.43H209.59c.583-1.522.873-2.285,1.457-3.808l6.977,0C217.557,342.147,217.323,342.908,216.855,344.43Z" transform="translate(-171.076 -338.472)" fill="#d3d3d3"/>
            <path id="Tracé_29" data-name="Tracé 29" d="M226.272,344.43h-7.264c.434-1.524.652-2.284,1.084-3.808h6.977C226.751,342.145,226.589,342.908,226.272,344.43Z" transform="translate(-171.076 -338.472)" fill="#d3d3d3"/>
            <path id="Tracé_30" data-name="Tracé 30" d="M235.687,344.43h-7.264c.284-1.522.424-2.287.711-3.808h6.979C235.941,342.145,235.854,342.908,235.687,344.43Z" transform="translate(-171.076 -338.472)" fill="#d3d3d3"/>
            <path id="Tracé_31" data-name="Tracé 31" d="M245.1,344.43h-7.258c.136-1.522.2-2.287.34-3.808h6.975C245.133,342.145,245.122,342.908,245.1,344.43Z" transform="translate(-171.076 -338.472)" fill="#d3d3d3"/>
            <path id="Tracé_32" data-name="Tracé 32" d="M254.517,344.43h-7.264c-.011-1.522-.016-2.285-.028-3.808H254.2C254.328,342.145,254.391,342.908,254.517,344.43Z" transform="translate(-171.076 -338.472)" fill="#d3d3d3"/>
            <path id="Tracé_33" data-name="Tracé 33" d="M263.931,344.43H256.67c-.159-1.522-.239-2.285-.4-3.808h6.972C263.52,342.145,263.656,342.908,263.931,344.43Z" transform="translate(-171.076 -338.472)" fill="#d3d3d3"/>
            <path id="Tracé_34" data-name="Tracé 34" d="M273.344,344.43h-7.262c-.307-1.522-.462-2.285-.771-3.808h6.977C272.709,342.145,272.921,342.908,273.344,344.43Z" transform="translate(-171.076 -338.472)" fill="#d3d3d3"/>
            <path id="Tracé_35" data-name="Tracé 35" d="M185.567,349.506h-7.643c1.026-1.522,1.538-2.284,2.564-3.807h7.361C186.936,347.222,186.479,347.983,185.567,349.506Z" transform="translate(-171.076 -338.472)" fill="#d3d3d3"/>
            <path id="Tracé_36" data-name="Tracé 36" d="M195.48,349.506h-7.646c.88-1.522,1.32-2.284,2.2-3.807h7.361C196.626,347.221,196.242,347.983,195.48,349.506Z" transform="translate(-171.076 -338.472)" fill="#d3d3d3"/>
            <path id="Tracé_37" data-name="Tracé 37" d="M205.389,349.506h-7.646c.73-1.522,1.093-2.284,1.825-3.807h7.358C206.311,347.222,206,347.983,205.389,349.506Z" transform="translate(-171.076 -338.472)" fill="#d3d3d3"/>
            <path id="Tracé_38" data-name="Tracé 38" d="M215.3,349.506h-7.648c.582-1.522.874-2.284,1.454-3.807h7.362C216,347.222,215.765,347.983,215.3,349.506Z" transform="translate(-171.076 -338.472)" fill="#d3d3d3"/>
            <path id="Tracé_39" data-name="Tracé 39" d="M225.21,349.506h-7.645c.434-1.522.649-2.284,1.082-3.8,2.945,0,4.414,0,7.359,0C225.685,347.222,225.528,347.983,225.21,349.506Z" transform="translate(-171.076 -338.472)" fill="#d3d3d3"/>
            <path id="Tracé_40" data-name="Tracé 40" d="M235.116,349.506h-7.645c.285-1.522.427-2.284.713-3.807h7.358C235.373,347.221,235.286,347.983,235.116,349.506Z" transform="translate(-171.076 -338.472)" fill="#d3d3d3"/>
            <path id="Tracé_41" data-name="Tracé 41" d="M245.024,349.506h-7.642c.136-1.522.206-2.284.342-3.807h7.354C245.057,347.222,245.046,347.983,245.024,349.506Z" transform="translate(-171.076 -338.472)" fill="#d3d3d3"/>
            <path id="Tracé_42" data-name="Tracé 42" d="M254.936,349.506h-7.645c-.011-1.522-.016-2.284-.028-3.807h7.358C254.746,347.222,254.812,347.983,254.936,349.506Z" transform="translate(-171.076 -338.472)" fill="#d3d3d3"/>
            <path id="Tracé_43" data-name="Tracé 43" d="M264.844,349.506H257.2c-.161-1.522-.242-2.284-.4-3.807h7.354C264.433,347.222,264.57,347.983,264.844,349.506Z" transform="translate(-171.076 -338.472)" fill="#d3d3d3"/>
            <path id="Tracé_44" data-name="Tracé 44" d="M274.753,349.506H267.11c-.309-1.522-.465-2.284-.772-3.807H273.7C274.119,347.222,274.331,347.983,274.753,349.506Z" transform="translate(-171.076 -338.472)" fill="#d3d3d3"/>
            <path id="Tracé_45" data-name="Tracé 45" d="M182.527,354.582H174.5c1.025-1.522,1.541-2.285,2.568-3.806l7.741,0C183.9,352.3,183.438,353.059,182.527,354.582Z" transform="translate(-171.076 -338.472)" fill="#d3d3d3"/>
            <path id="Tracé_46" data-name="Tracé 46" d="M192.931,354.582h-8.025c.877-1.522,1.317-2.285,2.2-3.806h7.743C194.079,352.3,193.7,353.059,192.931,354.582Z" transform="translate(-171.076 -338.472)" fill="#d3d3d3"/>
            <path id="Tracé_47" data-name="Tracé 47" d="M203.337,354.582h-8.029c.73-1.522,1.1-2.285,1.825-3.806h7.741Z" transform="translate(-171.076 -338.472)" fill="#d3d3d3"/>
            <path id="Tracé_48" data-name="Tracé 48" d="M213.74,354.582h-8.03c.582-1.522.874-2.285,1.455-3.806h7.743C214.442,352.3,214.208,353.059,213.74,354.582Z" transform="translate(-171.076 -338.472)" fill="#d3d3d3"/>
            <path id="Tracé_49" data-name="Tracé 49" d="M224.143,354.582h-8.024c.432-1.522.652-2.285,1.082-3.806h7.74C224.625,352.3,224.464,353.059,224.143,354.582Z" transform="translate(-171.076 -338.472)" fill="#d3d3d3"/>
            <path id="Tracé_50" data-name="Tracé 50" d="M234.545,354.582H226.52c.284-1.522.429-2.285.714-3.806h7.741C234.8,352.3,234.717,353.059,234.545,354.582Z" transform="translate(-171.076 -338.472)" fill="#d3d3d3"/>
            <path id="Tracé_51" data-name="Tracé 51" d="M244.947,354.582h-8.021c.136-1.522.2-2.285.34-3.806H245C244.983,352.3,244.971,353.059,244.947,354.582Z" transform="translate(-171.076 -338.472)" fill="#d3d3d3"/>
            <path id="Tracé_52" data-name="Tracé 52" d="M255.358,354.582H247.33c-.009-1.522-.016-2.285-.028-3.806h7.74C255.169,352.3,255.23,353.059,255.358,354.582Z" transform="translate(-171.076 -338.472)" fill="#d3d3d3"/>
            <path id="Tracé_53" data-name="Tracé 53" d="M265.76,354.582h-8.022c-.161-1.522-.242-2.285-.4-3.806h7.737C265.348,352.3,265.487,353.059,265.76,354.582Z" transform="translate(-171.076 -338.472)" fill="#d3d3d3"/>
            <path id="Tracé_54" data-name="Tracé 54" d="M276.161,354.582h-8.027c-.306-1.522-.46-2.285-.769-3.806h7.74C275.526,352.3,275.738,353.059,276.161,354.582Z" transform="translate(-171.076 -338.472)" fill="#d3d3d3"/>
            <path id="Tracé_55" data-name="Tracé 55" d="M179.485,359.655h-8.409c1.026-1.522,1.543-2.283,2.569-3.8h8.12C180.855,357.372,180.4,358.133,179.485,359.655Z" transform="translate(-171.076 -338.472)" fill="#d3d3d3"/>
            <path id="Tracé_56" data-name="Tracé 56" d="M190.385,359.655h-8.407c.88-1.522,1.318-2.283,2.2-3.8H192.3C191.533,357.372,191.148,358.133,190.385,359.655Z" transform="translate(-171.076 -338.472)" fill="#d3d3d3"/>
            <path id="Tracé_57" data-name="Tracé 57" d="M201.282,359.655h-8.407c.73-1.522,1.1-2.283,1.828-3.8h8.119C202.207,357.372,201.9,358.133,201.282,359.655Z" transform="translate(-171.076 -338.472)" fill="#d3d3d3"/>
            <path id="Tracé_58" data-name="Tracé 58" d="M212.145,359.776h-8.422c.6-1.569.9-2.355,1.5-3.924h8.125C212.868,357.42,212.628,358.207,212.145,359.776Z" transform="translate(-171.076 -338.472)" fill="#d3d3d3"/>
            <path id="Tracé_59" data-name="Tracé 59" d="M277.573,359.655h-62.9c.431-1.522.647-2.283,1.081-3.8h60.763C276.938,357.372,277.151,358.133,277.573,359.655Z" transform="translate(-171.076 -338.472)" fill="#d3d3d3"/>
            <path id="Tracé_60" data-name="Tracé 60" d="M231.078,368.018h47.716l-4.018-6.484h-39.9Z" transform="translate(-171.076 -338.472)" fill="#d3d3d3"/>
            <path id="Tracé_61" data-name="Tracé 61" d="M281.864,344.43H274.6c-.445-1.522-.664-2.285-1.106-3.808h6.977C281.028,342.143,281.3,342.908,281.864,344.43Z" transform="translate(-171.076 -338.472)" fill="#d3d3d3"/>
            <path id="Tracé_62" data-name="Tracé 62" d="M283.72,349.506h-7.648c-.441-1.522-.661-2.284-1.1-3.807h7.362C282.884,347.222,283.163,347.983,283.72,349.506Z" transform="translate(-171.076 -338.472)" fill="#d3d3d3"/>
            <path id="Tracé_63" data-name="Tracé 63" d="M285.576,354.582h-8.028c-.443-1.522-.661-2.285-1.1-3.806h7.741C284.741,352.3,285.017,353.059,285.576,354.582Z" transform="translate(-171.076 -338.472)" fill="#d3d3d3"/>
            <path id="Tracé_64" data-name="Tracé 64" d="M287.432,359.655h-8.409c-.443-1.522-.664-2.283-1.106-3.8h8.122Z" transform="translate(-171.076 -338.472)" fill="#d3d3d3"/>
            <path id="Tracé_65" data-name="Tracé 65" d="M290.379,344.43h-7.264c-.577-1.522-.867-2.285-1.441-3.808h6.978C289.341,342.145,289.688,342.908,290.379,344.43Z" transform="translate(-171.076 -338.472)" fill="#d3d3d3"/>
            <path id="Tracé_66" data-name="Tracé 66" d="M292.684,349.506h-7.646c-.577-1.522-.867-2.284-1.441-3.807h7.359C291.645,347.221,291.993,347.983,292.684,349.506Z" transform="translate(-171.076 -338.472)" fill="#d3d3d3"/>
            <path id="Tracé_67" data-name="Tracé 67" d="M294.986,354.582h-8.027l-1.443-3.806h7.741C293.951,352.3,294.294,353.059,294.986,354.582Z" transform="translate(-171.076 -338.472)" fill="#d3d3d3"/>
            <path id="Tracé_68" data-name="Tracé 68" d="M297.289,359.655h-8.41c-.574-1.522-.864-2.283-1.438-3.8h8.12C296.253,357.372,296.6,358.133,297.289,359.655Z" transform="translate(-171.076 -338.472)" fill="#d3d3d3"/>
            <path id="Tracé_69" data-name="Tracé 69" d="M298.895,344.43h-7.263l-1.778-3.808h6.979C297.658,342.145,298.072,342.908,298.895,344.43Z" transform="translate(-171.076 -338.472)" fill="#d3d3d3"/>
            <path id="Tracé_70" data-name="Tracé 70" d="M301.645,349.506H294l-1.778-3.807h7.361C300.407,347.222,300.822,347.983,301.645,349.506Z" transform="translate(-171.076 -338.472)" fill="#d3d3d3"/>
            <path id="Tracé_71" data-name="Tracé 71" d="M304.4,354.582H296.37c-.711-1.522-1.065-2.285-1.778-3.806h7.743C303.158,352.3,303.573,353.059,304.4,354.582Z" transform="translate(-171.076 -338.472)" fill="#d3d3d3"/>
            <path id="Tracé_72" data-name="Tracé 72" d="M307.147,359.655h-8.409c-.71-1.522-1.064-2.283-1.777-3.8h8.123C305.908,357.372,306.322,358.133,307.147,359.655Z" transform="translate(-171.076 -338.472)" fill="#d3d3d3"/>
            <path id="Tracé_73" data-name="Tracé 73" d="M307.41,344.43h-7.263l-2.111-3.808h6.975C305.974,342.145,306.451,342.908,307.41,344.43Z" transform="translate(-171.076 -338.472)" fill="#d3d3d3"/>
            <path id="Tracé_74" data-name="Tracé 74" d="M310.609,349.506h-7.645c-.844-1.522-1.268-2.284-2.112-3.807h7.359C309.17,347.222,309.652,347.983,310.609,349.506Z" transform="translate(-171.076 -338.472)" fill="#d3d3d3"/>
            <path id="Tracé_75" data-name="Tracé 75" d="M313.807,354.582h-8.025c-.845-1.522-1.266-2.285-2.113-3.806h7.741C312.37,352.3,312.849,353.059,313.807,354.582Z" transform="translate(-171.076 -338.472)" fill="#d3d3d3"/>
            <path id="Tracé_76" data-name="Tracé 76" d="M317.006,359.655H308.6c-.844-1.522-1.266-2.283-2.113-3.8h8.124C315.566,357.372,316.045,358.133,317.006,359.655Z" transform="translate(-171.076 -338.472)" fill="#d3d3d3"/>
            <path id="Tracé_77" data-name="Tracé 77" d="M315.93,344.43h-7.266c-.981-1.522-1.471-2.285-2.451-3.808h6.98C314.287,342.145,314.833,342.908,315.93,344.43Z" transform="translate(-171.076 -338.472)" fill="#d3d3d3"/>
            <path id="Tracé_78" data-name="Tracé 78" d="M319.572,349.506h-7.646c-.98-1.522-1.469-2.284-2.446-3.807h7.359C317.933,347.222,318.48,347.983,319.572,349.506Z" transform="translate(-171.076 -338.472)" fill="#d3d3d3"/>
            <path id="Tracé_79" data-name="Tracé 79" d="M323.219,354.582h-8.03c-.978-1.522-1.466-2.285-2.446-3.806h7.743C321.581,352.3,322.126,353.059,323.219,354.582Z" transform="translate(-171.076 -338.472)" fill="#d3d3d3"/>
            <path id="Tracé_80" data-name="Tracé 80" d="M326.863,359.655h-8.411c-.978-1.522-1.469-2.283-2.447-3.8h8.125Z" transform="translate(-171.076 -338.472)" fill="#d3d3d3"/>
            <path id="Tracé_81" data-name="Tracé 81" d="M324.442,344.43H317.18c-1.114-1.522-1.669-2.285-2.786-3.808h6.98C322.6,342.145,323.214,342.908,324.442,344.43Z" transform="translate(-171.076 -338.472)" fill="#d3d3d3"/>
            <path id="Tracé_82" data-name="Tracé 82" d="M328.535,349.506h-7.646c-1.11-1.522-1.669-2.284-2.781-3.807h7.358Z" transform="translate(-171.076 -338.472)" fill="#d3d3d3"/>
            <path id="Tracé_83" data-name="Tracé 83" d="M332.628,354.582H324.6c-1.114-1.522-1.669-2.285-2.783-3.806h7.741C330.787,352.3,331.4,353.059,332.628,354.582Z" transform="translate(-171.076 -338.472)" fill="#d3d3d3"/>
            <path id="Tracé_84" data-name="Tracé 84" d="M336.721,359.655H328.31l-2.781-3.8h8.122C334.879,357.372,335.491,358.133,336.721,359.655Z" transform="translate(-171.076 -338.472)" fill="#d3d3d3"/>
          </g>
          <g id="Groupe_37" data-name="Groupe 37" transform="translate(41.538)">
            <g id="Groupe_3" data-name="Groupe 3" transform="translate(36.115 180.824)">
              <path id="Tracé_85" data-name="Tracé 85" d="M292.5,328.219H217.609c.535-2.174,1.025-3.91,1.455-5.118a7.2,7.2,0,0,1,.912-1.744,16.1,16.1,0,0,1,6.526-4.831,60.67,60.67,0,0,1,12.764-3.893c5.151-1.056,10.77-1.817,16.241-2.368.37-.033.736-.072,1.106-.1,6.085-.568,11.931-.88,16.648-1.031,6.512-.225,10.9-.178,10.9-.178s.352.561.969,1.681A110.038,110.038,0,0,1,292.5,328.219Z" transform="translate(-217.609 -308.948)" fill="#0b4870"/>
            </g>
            <path id="Tracé_86" data-name="Tracé 86" d="M235.13,206.023a11.353,11.353,0,0,1-.746,2.705l.212-2.42C234.775,206.2,234.954,206.13,235.13,206.023Z" transform="translate(-181.494 -128.124)" fill="#ffe3ca"/>
            <path id="Tracé_87" data-name="Tracé 87" d="M274.8,202.43v.032a.748.748,0,0,0-.178-.069C274.693,202.394,274.726,202.43,274.8,202.43Z" transform="translate(-181.494 -128.124)" fill="#eebea7"/>
            <g id="Groupe_12" data-name="Groupe 12" transform="translate(170.162 100.282)">
              <g id="Groupe_7" data-name="Groupe 7" transform="translate(0 3.677)">
                <g id="Groupe_6" data-name="Groupe 6">
                  <g id="Groupe_5" data-name="Groupe 5">
                    <g id="Groupe_4" data-name="Groupe 4">
                      <path id="Tracé_88" data-name="Tracé 88" d="M351.656,253.5s4.626-4.288,3.709-7.505c-.777-2.73.4-5.788.688-7.057.4-1.681.555-7.138,1.809-6.841,2.123.516,1.633,9.227,1.894,11.084s5.887-4.358,7.8-4.683,11.686,9.564,7.336,13.386-10.349,5.362-10.983,6.186a34.134,34.134,0,0,1-3.614,3.088Z" transform="translate(-351.656 -232.082)" fill="#f1b99e"/>
                    </g>
                  </g>
                </g>
              </g>
              <g id="Groupe_11" data-name="Groupe 11" transform="translate(14.676)">
                <g id="Groupe_10" data-name="Groupe 10">
                  <g id="Groupe_9" data-name="Groupe 9">
                    <g id="Groupe_8" data-name="Groupe 8">
                      <path id="Tracé_89" data-name="Tracé 89" d="M366.332,239.141s14.1-10.8,15.642-10.735,2.081.866.8,1.928-13.315,10.837-13.315,10.837,18.832-9.984,20.111-10.207c.742-.132,1.312,1.3.678,1.931S372.1,244.549,372.1,244.549s17.6-9.292,18.721-9.16a1.371,1.371,0,0,1,.427,2.519c-1.259.777-17.108,10.327-17.108,10.327s13.24-5.952,14.121-5.287c.535.412,1.3,1.316-2.16,2.744a123.609,123.609,0,0,0-11,5.995Z" transform="translate(-366.332 -228.406)" fill="#f1b99e"/>
                    </g>
                  </g>
                </g>
              </g>
            </g>
            <path id="Tracé_90" data-name="Tracé 90" d="M265.656,193.107v.96a2.351,2.351,0,0,1-.178-.5.14.14,0,0,1-.073-.144A2.307,2.307,0,0,1,265.656,193.107Z" transform="translate(-181.494 -128.124)" fill="#ffbe55"/>
            <g id="Groupe_13" data-name="Groupe 13" transform="translate(73.097 64.983)">
              <path id="Tracé_91" data-name="Tracé 91" d="M255.054,198.944a2.2,2.2,0,0,1-.463.033v-.07A1.948,1.948,0,0,0,255.054,198.944Z" transform="translate(-254.591 -193.107)" fill="#eebea7"/>
              <path id="Tracé_92" data-name="Tracé 92" d="M265.656,193.107v.286c-.075.072-.108.1-.178.177-.391.427-.82.817-1.246,1.21-.179.143-.32.283-.5.426.211-.211.46-.462.677-.675.32-.32.638-.711.992-1.1A2.308,2.308,0,0,1,265.656,193.107Z" transform="translate(-254.591 -193.107)" fill="#eebea7"/>
            </g>
            <g id="Groupe_16" data-name="Groupe 16" transform="translate(53.516 31.011)">
              <g id="Groupe_15" data-name="Groupe 15">
                <g id="Groupe_14" data-name="Groupe 14">
                  <path id="Tracé_93" data-name="Tracé 93" d="M273.8,180.835a46.17,46.17,0,0,1-7.046,11.35c-.353.426-.747.852-1.1,1.209v-.286a2.248,2.248,0,0,0-.251.319c-.354.394-.672.785-.992,1.1-.217.214-.466.464-.677.675a.933.933,0,0,0-.214.179.98.98,0,0,1-.323.249,8.051,8.051,0,0,1-.889.675,10.381,10.381,0,0,1-1.135.747c-.108.071-.215.141-.285.179a10.288,10.288,0,0,1-1.029.531,6.149,6.149,0,0,1-1,.428l-.034.036c-.284.072-.5.178-.749.249a.5.5,0,0,1-.214.072,6.091,6.091,0,0,1-.747.178c-.069,0-.105.034-.176.034h-.109c-.176.038-.388.073-.566.109a3.209,3.209,0,0,1-.569.034,2.445,2.445,0,0,1-.5.037h-.034a.069.069,0,0,1-.106,0,1.948,1.948,0,0,1-.463-.037v.07a4.609,4.609,0,0,1-.674-.07c-.251-.034-.535-.07-.786-.1-.142-.038-.281-.038-.463-.072a2.113,2.113,0,0,1-.426-.108,9.419,9.419,0,0,1-2.2-.855,6.161,6.161,0,0,1-.677-.388,16.385,16.385,0,0,1-3.488-2.848c-.423-.424-.816-.924-1.243-1.424a40.9,40.9,0,0,1-5.3-9.14c-.711-1.6-1.354-3.168-1.922-4.662.888,1.743-.661-14.517-.3-13.946-4.837-9.25-.016-1.637,1.7-6.224,10.705,4.517,31.514,12.309,31.514,4.41,0,0,.462,4.8,1,9.783.426,4.091.889,8.327,1.1,9.927C272.416,183.254,272.982,182.364,273.8,180.835Z" transform="translate(-235.01 -159.135)" fill="#f4c7b1"/>
                  <path id="Tracé_94" data-name="Tracé 94" d="M255.054,198.944a2.2,2.2,0,0,1-.463.033v-.07A1.948,1.948,0,0,0,255.054,198.944Z" transform="translate(-235.01 -159.135)" fill="#eebea7"/>
                  <path id="Tracé_95" data-name="Tracé 95" d="M265.656,193.107v.286c-.075.072-.108.1-.178.177-.391.427-.82.817-1.246,1.21-.179.143-.32.283-.5.426.211-.211.46-.462.677-.675.32-.32.638-.711.992-1.1A2.308,2.308,0,0,1,265.656,193.107Z" transform="translate(-235.01 -159.135)" fill="#eebea7"/>
                </g>
              </g>
            </g>
            <g id="Groupe_19" data-name="Groupe 19" transform="translate(49.191 1.737)">
              <g id="Groupe_18" data-name="Groupe 18">
                <g id="Groupe_17" data-name="Groupe 17">
                  <path id="Tracé_96" data-name="Tracé 96" d="M237.407,179.3c-2.848-5.621-7.436-16.363-6.617-26.539v-.037c-1.279-8.43,9.215-23.621,25.225-22.839,16.007-.782,26.5,14.409,25.222,22.839v.037c.495,6.154-1,12.486-2.847,17.789a9.458,9.458,0,0,1,3.449.5c6.37,2.1,9.357,10.389,6.654,18.465-2.667,8.11-10.033,12.947-16.4,10.849a10.616,10.616,0,0,1-6.439-6.3v-.674c.354-.356.749-.783,1.1-1.209a46.17,46.17,0,0,0,7.046-11.35,18.331,18.331,0,0,0-1.318,3.41c-.215-1.6-.747-6.826-1.173-10.917-.537-4.98-1-9.783-1-9.783,0,7.9-20.809.107-31.514-4.41Z" transform="translate(-230.685 -129.861)" fill="#ffbe55"/>
                </g>
              </g>
            </g>
            <g id="Groupe_22" data-name="Groupe 22" transform="translate(73.097 64.983)">
              <g id="Groupe_21" data-name="Groupe 21">
                <g id="Groupe_20" data-name="Groupe 20">
                  <path id="Tracé_97" data-name="Tracé 97" d="M265.656,193.107v.96c0,.677-.034,1.495,0,2.42a18.912,18.912,0,0,1-3.131,3.166c-.359.285-.713.535-1.067.783a5.765,5.765,0,0,1-.855.533h-.034a10.343,10.343,0,0,1-4.874,1.423h-.82a.689.689,0,0,1-.284-.036v-3.451a1.948,1.948,0,0,0,.463.037.069.069,0,0,0,.106,0h.034a2.578,2.578,0,0,0,.5.033,4.166,4.166,0,0,0,.675-.07c.248-.034.535-.07.785-.1.14-.038.281-.038.462-.072a2.089,2.089,0,0,0,.427-.108,9.3,9.3,0,0,0,2.2-.855,5.587,5.587,0,0,0,.678-.388,10.044,10.044,0,0,0,2.276-1.745.98.98,0,0,0,.323-.249.913.913,0,0,1,.214-.179c.211-.211.46-.462.677-.675.32-.32.638-.711.992-1.1A2.421,2.421,0,0,1,265.656,193.107Z" transform="translate(-254.591 -193.107)" fill="#a5735b"/>
                </g>
              </g>
            </g>
            <path id="Tracé_98" data-name="Tracé 98" d="M254.593,223.6v96.3l16.615-.71,13.662-.605-1.39-16.827-1.529-18.822c-2.206.928-4.7,2.029-7.082,3.1a128.409,128.409,0,0,0,.5-19.853c-1.672-20.777-4.268-37.71-6.3-48.774v-.036a21.82,21.82,0,0,0-.569-6.723c-.069-.466-.178-.924-.284-1.352-.143-.5-.247-.96-.39-1.423-.109-.357-.215-.711-.323-1.066-.07-.249-.178-.5-.246-.713a24.109,24.109,0,0,0-.928-2.561h-.069c.285,1.282,1.281,5.551,2.524,12.273v.037c-.814,3.557-3.414,5.549-6.617,6.654-.034,0-.1.033-.143.033a23.422,23.422,0,0,1-7.075,1.067A1.193,1.193,0,0,1,254.593,223.6Z" transform="translate(-181.494 -128.124)" fill="#0e538c"/>
            <g id="Groupe_24" data-name="Groupe 24" transform="translate(84.767 75.205)">
              <g id="Groupe_23" data-name="Groupe 23">
                <path id="Tracé_99" data-name="Tracé 99" d="M292.55,253.554a52.639,52.639,0,0,1,3.273,6.473c-.176,3.024-.39,4.836-.39,4.836s-1.316,3.451-3.06,8.861c-.465,1.349-4.943,25.257-5.441,26.824-.108.284-.181.6-.285.889-1.636.816-1.271-.608-4.119.534-.85.354-1.778.71-2.739,1.135-.142.075-.318.144-.571.25a8.928,8.928,0,0,0-.853.356c-1.814.783-3.769,1.638-5.654,2.491.638-7.436,3.084-34.436,2.656-40.022-1.671-20.777-4.266-37.71-6.3-48.774v-.036c-.109-.533-.176-1.03-.284-1.529V215.8c-1.245-6.722-2.241-10.99-2.527-12.273h9.215v.073c2.56-.179,14.645-1.88,22.9,5.982-4.555-1.957-10.591-.186-12.616,1.061a10.888,10.888,0,0,0-2.246,1.707,11.394,11.394,0,0,0-2.488,3.38C275.121,227.938,290.059,249.78,292.55,253.554Z" transform="translate(-266.261 -203.329)" fill="#2a94f4"/>
                <path id="Tracé_100" data-name="Tracé 100" d="M293.222,328.219h-22.9c.239-2.918.543-5.943.88-9.028.343-3.311.752-6.677,1.142-10.061.13-1.168.265-2.329.393-3.494a.028.028,0,0,0,.017-.008c2.781-1.017,6.437-5.743,10.445-7.326.1-.033.183-.072.279-.105,1.143-.391,2.279,2.775,3.447,2.351C287.68,308.5,290.36,318.871,293.222,328.219Z" transform="translate(-266.261 -203.329)" fill="#2a94f4"/>
              </g>
            </g>
            <path id="Tracé_101" data-name="Tracé 101" d="M254.593,202.358V223.6a1.168,1.168,0,0,0,.359,0,23.421,23.421,0,0,0,7.075-1.067c.041,0,.109-.033.143-.033,3.2-1.1,5.8-3.1,6.617-6.654V215.8c-1.243-6.722-2.238-10.99-2.524-12.273h-.5v-.675c0-.426-.037-.818-.037-1.21-.034-1.281-.034-2.49-.069-3.665v-1.493a18.871,18.871,0,0,1-3.13,3.166,7,7,0,0,1-1.065.783,6.035,6.035,0,0,1-.855.533h-.034a10.206,10.206,0,0,1-5.16,1.423A6.008,6.008,0,0,1,254.593,202.358Z" transform="translate(-181.494 -128.124)" fill="#f4c7b1"/>
            <g id="Groupe_25" data-name="Groupe 25" transform="translate(94.754 76.541)">
              <path id="Tracé_102" data-name="Tracé 102" d="M356.657,249.012l.823,1.465.025.028,6.428,11.363.993,1.749s-1.948.785-5.013,2.082c-2.79,1.179-6.494,2.728-10.508,4.466-1.106.491-2.209.977-3.354,1.46-7.807,3.463-16.025,7.16-20.14,9.526-8.977,5.127-16.447,6.918-21,6.824-4.527-.12-14.456-26.918-16.007-33.347-1.572-6.4-7.381-18.2-11.543-29.427a15.884,15.884,0,0,1,.256-12.326c2.006-4.532,5.788-7.461,8.123-7.929a11.058,11.058,0,0,1,2.808-.275,11.465,11.465,0,0,1,4.118.784c12.634,4.923,16.546,31.1,17.286,35.555a53.278,53.278,0,0,0,2.009,6.973c2.167,6.625,5.322,14.62,5.322,14.62a82.412,82.412,0,0,1,11.38-4.208,65.363,65.363,0,0,0,6.272-2.031c.863-.32,1.786-.693,2.778-1.032,2.249-.821,4.823-1.711,7.3-2.547C351.051,250.767,356.657,249.012,356.657,249.012Z" transform="translate(-276.249 -204.665)" fill="#2a94f4"/>
            </g>
            <g id="Groupe_28" data-name="Groupe 28" transform="translate(63.135 64.985)">
              <g id="Groupe_27" data-name="Groupe 27">
                <g id="Groupe_26" data-name="Groupe 26">
                  <path id="Tracé_103" data-name="Tracé 103" d="M255.7,198.907v3.451a.766.766,0,0,1-.284.036h-.821a10.344,10.344,0,0,1-4.876-1.423h-.034a6.128,6.128,0,0,1-.855-.533c-.353-.248-.706-.5-1.065-.783a18.874,18.874,0,0,1-3.131-3.166c.034-1.387,0-2.562,0-3.38.427.5.82,1,1.243,1.424a16.355,16.355,0,0,0,3.488,2.848,6,6,0,0,0,.677.388,9.436,9.436,0,0,0,2.2.855,2.1,2.1,0,0,0,.426.108c.183.034.321.034.463.072.251.035.535.071.786.1a4.6,4.6,0,0,0,.674.07,2.2,2.2,0,0,0,.463-.033.069.069,0,0,0,.106,0h.034A2.616,2.616,0,0,0,255.7,198.907Z" transform="translate(-244.629 -193.109)" fill="#a5735b"/>
                </g>
              </g>
            </g>
            <path id="Tracé_104" data-name="Tracé 104" d="M255.7,223.6v96.3l-16.615-.71-13.661-.605,1.388-16.827,1.529-18.822c2.206.928,4.7,2.029,7.082,3.1a128.268,128.268,0,0,1-.5-19.853c1.671-20.777,4.266-37.71,6.294-48.774v-.036a21.883,21.883,0,0,1,.571-6.723c.069-.466.178-.924.286-1.352.143-.5.245-.96.388-1.423.109-.357.215-.711.323-1.066.07-.249.178-.5.248-.713a25.172,25.172,0,0,1,.926-2.561h.069c-.284,1.282-1.282,5.551-2.525,12.273v.037c.816,3.557,3.416,5.549,6.62,6.654.034,0,.1.033.142.033a23.431,23.431,0,0,0,7.075,1.067A1.193,1.193,0,0,0,255.7,223.6Z" transform="translate(-181.494 -128.124)" fill="#0e538c"/>
            <g id="Groupe_30" data-name="Groupe 30" transform="translate(28.479 75.407)">
              <g id="Groupe_29" data-name="Groupe 29">
                <path id="Tracé_105" data-name="Tracé 105" d="M244.024,203.531c-.284,1.282-1.282,5.551-2.525,12.273v.037c-.106.5-.178,1-.285,1.529v.036c-2.028,11.064-4.623,28-6.294,48.774a128.147,128.147,0,0,0,.5,19.853c-2.385-1.069-4.876-2.17-7.082-3.1-.959-.427-1.887-.781-2.737-1.135a64.352,64.352,0,0,1-5.979-2.778c-.1-.284-.178-.6-.285-.887-.5-1.566-.959-3.061-1.421-4.41-1.745-5.409-3.06-8.861-3.06-8.861s-.212-1.812-.39-4.836a52.264,52.264,0,0,1,3.274-6.473c2.488-3.774,17.428-25.616,11.522-37.819a11.377,11.377,0,0,0-2.488-3.38,10.955,10.955,0,0,0-2.244-1.707c-2.023-1.246-10,.164-14.555,2.121,8.254-7.865,22.279-9.343,24.84-9.164v-.073h9.211Z" transform="translate(-209.973 -203.531)" fill="#2a94f4"/>
                <path id="Tracé_106" data-name="Tracé 106" d="M239.959,328.219h-22.9c.688-2.246,1.367-4.55,2-6.862a127.18,127.18,0,0,0,4.294-20.809c1.167.424,2.312.816,3.455,1.207,4.126,1.455,7.894,2.848,10.733,3.881.256,2.333.535,4.676.808,7,.248,2.2.5,4.4.727,6.557C239.416,322.276,239.719,325.3,239.959,328.219Z" transform="translate(-209.973 -203.531)" fill="#2a94f4"/>
              </g>
            </g>
            <path id="Tracé_107" data-name="Tracé 107" d="M255.7,202.358V223.6a1.168,1.168,0,0,1-.359,0,23.431,23.431,0,0,1-7.075-1.067c-.037,0-.107-.033-.142-.033-3.2-1.1-5.8-3.1-6.62-6.654V215.8c1.243-6.722,2.242-10.99,2.525-12.273h.5v-.675c0-.426.037-.818.037-1.21.034-1.281.034-2.49.069-3.665v-1.493a18.837,18.837,0,0,0,3.131,3.166,7.1,7.1,0,0,0,1.065.783,6.036,6.036,0,0,0,.855.533h.034a10.211,10.211,0,0,0,5.16,1.423A6.015,6.015,0,0,0,255.7,202.358Z" transform="translate(-181.494 -128.124)" fill="#f4c7b1"/>
            <g id="Groupe_33" data-name="Groupe 33" transform="translate(0 81.465)">
              <g id="Groupe_32" data-name="Groupe 32" transform="translate(61.608 80.962)">
                <g id="Groupe_31" data-name="Groupe 31">
                  <path id="Tracé_108" data-name="Tracé 108" d="M265.512,296.527a6.085,6.085,0,0,1-1.28,2.739,3.672,3.672,0,0,1-.782,3.414,3.213,3.213,0,0,1-1.352,3.237s.427,1.922-1,2.741a22.058,22.058,0,0,1-4.23.179c-1.426-.321-8.078-1.85-13.768-3.274l3.023-12.7v-.034c1.317-.889,2.56-1.71,2.953-1.958.961-.571,4.235-.391,7.61.675a62.792,62.792,0,0,1,7.971,3.06C265.194,294.889,265.724,295,265.512,296.527Z" transform="translate(-243.102 -290.55)" fill="#eea886"/>
                </g>
              </g>
              <path id="Tracé_109" data-name="Tracé 109" d="M246.517,291.189l-.393,1.638v.034l-3.023,12.7-.462,1.958s-1.959-.747-5.093-1.887c-2.844-1.032-6.612-2.418-10.739-3.876-1.139-.393-2.28-.785-3.449-1.209-8.077-2.778-16.617-5.659-21.242-6.726-10.068-2.349-16.759-6.119-20.031-9.284-3.235-3.166,7.721-29.563,10.961-35.327,3.2-5.764,6.969-18.357,11.561-29.42a15.858,15.858,0,0,1,8.573-8.858c4.556-1.958,9.323-1.532,11.346-.286a10.9,10.9,0,0,1,2.244,1.707,11.377,11.377,0,0,1,2.488,3.38c5.906,12.2-9.034,34.045-11.522,37.819a52.338,52.338,0,0,0-3.274,6.473c-2.917,6.33-6.048,14.335-6.048,14.335a82.62,82.62,0,0,1,11.2,4.659A64.35,64.35,0,0,0,225.6,281.8c.85.354,1.778.708,2.737,1.135,2.206.928,4.7,2.029,7.082,3.1C241.213,288.664,246.517,291.189,246.517,291.189Z" transform="translate(-181.494 -209.589)" fill="#2a94f4"/>
            </g>
            <g id="Groupe_36" data-name="Groupe 36" transform="translate(46.701)">
              <path id="Tracé_110" data-name="Tracé 110" d="M280.037,170.744l-.306-13.94a52.231,52.231,0,0,0-.332-6.787,23.155,23.155,0,0,0-1.842-6.313,20.619,20.619,0,0,0-8.652-9.458,27.144,27.144,0,0,0-25.289,0,20.635,20.635,0,0,0-8.665,9.458,23.383,23.383,0,0,0-1.836,6.313,49.983,49.983,0,0,0-.329,6.787l-.312,13.94h-1.747l-.3-13.94a50.983,50.983,0,0,1,.175-7.124,26.011,26.011,0,0,1,1.872-7.069,22.789,22.789,0,0,1,9.7-10.863,29.154,29.154,0,0,1,28.155,0,22.748,22.748,0,0,1,9.7,10.863,26.289,26.289,0,0,1,1.884,7.069,51.75,51.75,0,0,1,.176,7.124l-.3,13.94h-1.753Z" transform="translate(-228.195 -128.124)" fill="#0e538c"/>
              <g id="Groupe_34" data-name="Groupe 34" transform="translate(0 31.12)">
                <path id="Tracé_111" data-name="Tracé 111" d="M232.123,178.313c-3.137,0-3.928-2.249-3.928-5.027v-9.013c0-2.775.791-5.029,3.928-5.029h.75v19.069Z" transform="translate(-228.195 -159.244)" fill="#0b4870"/>
                <rect id="Rectangle_12" data-name="Rectangle 12" width="1.621" height="19.069" transform="translate(4.678 0.001)" fill="#2a94f4"/>
              </g>
              <g id="Groupe_35" data-name="Groupe 35" transform="translate(50.301 31.12)">
                <path id="Tracé_112" data-name="Tracé 112" d="M280.868,178.313c3.14,0,3.937-2.249,3.937-5.027v-9.013c0-2.775-.8-5.029-3.937-5.029h-.75v19.069Z" transform="translate(-278.496 -159.244)" fill="#0b4870"/>
                <rect id="Rectangle_13" data-name="Rectangle 13" width="1.622" height="19.069" transform="translate(0 0.001)" fill="#2a94f4"/>
              </g>
              <path id="Tracé_113" data-name="Tracé 113" d="M257.42,195.69v-1.749c7.236,0,21.017-10.283,21.017-15.628h1.745C280.182,185.079,264.938,195.69,257.42,195.69Z" transform="translate(-228.195 -128.124)" fill="#cce9ff"/>
              <path id="Tracé_114" data-name="Tracé 114" d="M258.582,197.258h-2.33c-1.933,0-3.5-1.09-3.5-2.443s1.564-2.437,3.5-2.437h2.33c1.931,0,3.5,1.09,3.5,2.437S260.513,197.258,258.582,197.258Z" transform="translate(-228.195 -128.124)" fill="#0b4870"/>
            </g>
          </g>
        </g>
        <g id="Groupe_40" data-name="Groupe 40">
          <path id="Tracé_115" data-name="Tracé 115" d="M195.023,101.446v13.813l-.083,18.751-.111,22.648-.07,16.708-16.645-16.772-5.079-.018-67.353-.315A24.722,24.722,0,0,1,85.716,132.02V101.446a24.709,24.709,0,0,1,21.908-24.537l67.512.311A24.7,24.7,0,0,1,195.023,101.446Z" transform="translate(-85.716 -76.909)" fill="#2a94f4"/>
          <g id="Groupe_39" data-name="Groupe 39" transform="translate(18.973 21.573)">
            <path id="Tracé_116" data-name="Tracé 116" d="M174.026,102.109a3.627,3.627,0,0,1-3.624,3.63H108.317a3.628,3.628,0,0,1-3.628-3.63h0a3.627,3.627,0,0,1,3.628-3.627H170.4a3.626,3.626,0,0,1,3.624,3.627Z" transform="translate(-104.689 -98.482)" fill="#cce9ff" opacity="0.8"/>
            <path id="Tracé_117" data-name="Tracé 117" d="M174.026,115.617a3.633,3.633,0,0,1-3.624,3.631H108.317a3.635,3.635,0,0,1-3.628-3.631h0a3.629,3.629,0,0,1,3.628-3.63H170.4a3.627,3.627,0,0,1,3.624,3.63Z" transform="translate(-104.689 -98.482)" fill="#cce9ff" opacity="0.8"/>
            <path id="Tracé_118" data-name="Tracé 118" d="M155.059,129.124a3.635,3.635,0,0,1-3.634,3.62H108.313a3.628,3.628,0,0,1,0-7.256h43.112A3.638,3.638,0,0,1,155.059,129.124Z" transform="translate(-104.689 -98.482)" fill="#cce9ff" opacity="0.8"/>
          </g>
        </g>
      </g>
    </g>
  </g>
</svg>
