<?xml version="1.0" encoding="utf-8"?>
<!-- Generator: Adobe Illustrator 24.3.0, SVG Export Plug-In . SVG Version: 6.00 Build 0)  -->
<svg version="1.1" id="Calque_1" xmlns="http://www.w3.org/2000/svg" xmlns:xlink="http://www.w3.org/1999/xlink" x="0px" y="0px"
	 viewBox="0 0 320 100" style="enable-background:new 0 0 320 100;" xml:space="preserve">
<style type="text/css">
	.st0{fill:#485161;}
	.st1{fill:#86C4DA;}
</style>
<path class="st0" d="M3.1,60.7c0-13.5,11-24.3,24.9-24.3s24.9,10.9,24.9,24.4S41.8,84.9,28,84.9S3.1,74.2,3.1,60.7z M11.1,60.6
	c0,9.4,6.8,17,16.8,17s16.8-7.6,16.8-17c0-9.3-6.8-17-16.8-17S11.1,51.4,11.1,60.6z"/>
<path class="st0" d="M59.3,37.6h9.9l12.4,15.7L94,37.6h10L86.7,59.2l19.6,24.5h-9.8L81.5,65L66.4,83.7H56.3l20.1-24.5L59.3,37.6z"/>
<path class="st0" d="M125.3,20.2c0,3.1-2.6,5.6-5.7,5.6s-5.7-2.5-5.7-5.6c0-3,2.6-5.6,5.7-5.6C122.7,14.7,125.3,17.2,125.3,20.2z
	 M123.6,83.7h-8.1v-46h8.1V83.7z"/>
<path class="st0" d="M140,2.9h8.1v41.3h0.2c3.8-4.9,9.8-7.8,16.2-7.8c14.1,0,22.8,11.3,22.8,24.3c0,12.8-8.8,24.3-22.6,24.3
	c-6.5,0-12.5-2.6-16.3-7.6h-0.2v6.4H140V2.9z M147.6,60.2c0,9,5.4,17.5,15.5,17.5c10.4,0,15.8-8.1,15.8-17.4
	c0-9.2-5.9-16.7-15.9-16.7C153.7,43.6,147.6,51.5,147.6,60.2z"/>
<path class="st0" d="M269.3,37.6h9.9l12.4,15.7L304,37.6h10l-17.3,21.5l19.6,24.5h-9.8l-15-18.7l-15.1,18.7h-10.1L286.4,59
	L269.3,37.6z"/>
<g>
	<path class="st1" d="M194.3,73.2c-1.9-4.6-2.8-9.4-2.8-14.4c0-21,17.1-38.1,38.1-38.1c5,0,9.8,1,14.4,2.8l-1,2.4
		c-4.3-1.7-8.8-2.6-13.4-2.6c-19.6,0-35.5,15.9-35.5,35.5c0,4.6,0.9,9.1,2.6,13.4L194.3,73.2z"/>
	<path class="st1" d="M229.6,96.8c-5,0-9.8-0.9-14.4-2.8l1-2.4c4.3,1.7,8.8,2.6,13.4,2.6c19.6,0,35.5-15.9,35.5-35.5
		c0-4.6-0.9-9.1-2.6-13.4l2.4-1c1.9,4.6,2.8,9.4,2.8,14.4C267.7,79.8,250.6,96.8,229.6,96.8z"/>
</g>
<path class="st0" d="M204.7,58.9c0-13.5,11-24.4,24.9-24.4s24.9,10.9,24.9,24.4S243.4,83,229.6,83S204.7,72.3,204.7,58.9z
	 M212.8,58.8c0,9.4,6.9,17,16.8,17c10,0,16.8-7.6,16.8-17c0-9.3-6.9-17-16.8-17C219.6,41.7,212.8,49.5,212.8,58.8z"/>
</svg>
